<svg xmlns="http://www.w3.org/2000/svg" xmlns:xlink="http://www.w3.org/1999/xlink" fill="none" version="1.1" width="40" height="40" viewBox="0 0 40 40"><g><g><path d="M20,38C29.9411,38,38,29.9411,38,20C38,10.05887,29.9411,2,20,2C10.05887,2,2,10.05887,2,20C2,29.9411,10.05887,38,20,38ZM14.888,10.112Q16.808,8,20.264,8C22.312,8,23.944,8.544,25.192,9.696C26.376,10.784,26.984,12.288,26.984,14.208C26.984,15.648,26.568,16.896,25.768,17.951999999999998C25.448,18.336,24.584,19.168,23.176,20.416C22.472,21.024,21.992,21.6,21.672,22.176C21.256,22.88,21.064,23.648,21.064,24.512L21.064,25.248L18.504,25.248L18.504,24.512C18.504,23.456,18.696,22.528,19.08,21.728C19.528,20.768,20.584,19.552,22.312,18.016C22.824,17.503999999999998,23.208,17.119999999999997,23.4,16.864C24.04,16.064,24.36,15.232,24.36,14.336C24.36,13.056,23.976,12.064,23.272,11.36C22.536,10.592,21.48,10.24,20.136,10.24C18.536,10.24,17.352,10.752,16.584,11.808C15.88,12.704,15.528,13.92,15.528,15.488L13,15.488C13,13.248,13.608,11.456,14.888,10.112ZM18.408,28.032C18.792,27.648,19.24,27.488,19.784,27.488C20.328,27.488,20.808,27.648,21.192,28.032C21.544,28.384,21.736,28.832,21.736,29.376C21.736,29.952,21.544,30.4,21.16,30.752C20.776,31.104,20.328,31.296,19.784,31.296C19.24,31.296,18.792,31.104,18.408,30.752C18.024,30.368,17.864,29.92,17.864,29.376C17.864,28.832,18.024,28.384,18.408,28.032Z" fill-rule="evenodd" fill="#EE2233" fill-opacity="1"/></g></g></svg>