<svg xmlns="http://www.w3.org/2000/svg" xmlns:xlink="http://www.w3.org/1999/xlink" fill="none" version="1.1" width="40" height="40" viewBox="0 0 40 40"><g><g><path d="M1,20C1,9.50659,9.50659,1,20,1C30.4934,1,39,9.50659,39,20C39,30.4934,30.4934,39,20,39C9.50659,39,1,30.4934,1,20ZM10.8767,22.4356L14.9225,26.312C15.1691,26.5483,16.0247,27.3711,16.2706,27.6067C17.0205,28.3253,18.2201,28.3228,18.9616,27.6124L29.7638,17.2624C30.5006,16.5564,30.5026,15.3976,29.7579,14.6841C29.008,13.9656,27.8084,13.968,27.067,14.6784L17.6206,23.7293L13.5735,19.8517C12.8237,19.1333,11.6217,19.1384,10.87696,19.852C10.12706,20.5705,10.13214,21.7222,10.8767,22.4356Z" fill="#22BB22" fill-opacity="1"/></g></g></svg>